<svg xmlns="http://www.w3.org/2000/svg" width="1080" height="820" viewBox="0 0 1080 820">
  <defs>
    <linearGradient id="bg" x1="0" y1="0" x2="1" y2="1">
      <stop offset="0" stop-color="#F8F2EC"/>
      <stop offset="0.55" stop-color="#fffaf4"/>
      <stop offset="1" stop-color="#EED4C9" stop-opacity="0.42"/>
    </linearGradient>
    <radialGradient id="pearl" cx="50%" cy="42%" r="45%">
      <stop offset="0" stop-color="#fff" stop-opacity="0.92"/>
      <stop offset="0.48" stop-color="#F5D7CB" stop-opacity="0.58"/>
      <stop offset="1" stop-color="#EED4C9" stop-opacity="0.05"/>
    </radialGradient>
    <filter id="shadow" x="-20%" y="-20%" width="140%" height="140%">
      <feDropShadow dx="0" dy="20" stdDeviation="22" flood-color="#7A514B" flood-opacity="0.16"/>
    </filter>
    <pattern id="texture" width="34" height="34" patternUnits="userSpaceOnUse">
      <path d="M0 33.5H34M33.5 0V34" stroke="#7A514B" stroke-opacity="0.035"/>
    </pattern>
  </defs>
  <rect width="1080" height="820" fill="url(#bg)"/>
  <rect width="1080" height="820" fill="url(#texture)"/>
  <circle cx="540" cy="328" r="230" fill="url(#pearl)" opacity="0.65"/>
  <g filter="url(#shadow)">
    <rect x="435" y="170" width="210" height="260" rx="36" fill="#F4C6B9" opacity="0.78" stroke="#B96F68" stroke-opacity="0.26" stroke-width="4"/>
    <rect x="485" y="130" width="110" height="70" rx="34" fill="none" stroke="#B96F68" stroke-opacity="0.42" stroke-width="16"/>
    <path d="M482 250 H598 M482 300 H598 M482 350 H598" stroke="#FFF8F0" stroke-opacity="0.78" stroke-width="10" stroke-linecap="round"/>
    <path d="M675 210 C725 235 720 285 680 305 M705 160 C780 200 782 295 712 350" fill="none" stroke="#C78D80" stroke-opacity="0.32" stroke-width="12" stroke-linecap="round"/>
  </g>
  <text x="540" y="80" text-anchor="middle" font-family="Montserrat, Arial, sans-serif" font-size="22" letter-spacing="12" font-weight="700" fill="#B96F68" opacity="0.72">LAVANDERIA</text>
  <text x="540" y="300" text-anchor="middle" font-family="Georgia, serif" font-size="36" font-weight="600" fill="#5D4A3E">Passadeira a Vapor</text>
  <text x="540" y="344" text-anchor="middle" font-family="Georgia, serif" font-size="36" font-weight="600" fill="#5D4A3E">Mondial Fast Steam</text>
  <text x="540" y="388" text-anchor="middle" font-family="Georgia, serif" font-size="36" font-weight="600" fill="#5D4A3E">VP-09</text>
  <path d="M390 594 C450 630 630 630 690 594" fill="none" stroke="#B96F68" stroke-opacity="0.28" stroke-width="3"/>
  <text x="540" y="650" text-anchor="middle" font-family="Montserrat, Arial, sans-serif" font-size="19" letter-spacing="8" font-weight="700" fill="#9A7771" opacity="0.78">CHÁ DE CASA NOVA</text>
  <text x="540" y="700" text-anchor="middle" font-family="Georgia, serif" font-size="44" fill="#B96F68" opacity="0.86">Jeyse &amp; Erison</text>
</svg>
